<?xml version="1.0" encoding="utf-8"?>
<!-- Generator: Adobe Illustrator 25.2.3, SVG Export Plug-In . SVG Version: 6.00 Build 0)  -->
<svg version="1.1" id="Layer_1" xmlns="http://www.w3.org/2000/svg" xmlns:xlink="http://www.w3.org/1999/xlink" x="0px" y="0px"
	 viewBox="0 0 1000 400" style="enable-background:new 0 0 1000 400;" xml:space="preserve">
<style type="text/css">
	.st0{fill:#080D26;}
	.st1{fill:#FF0068;}
	.st2{fill:#040B21;}
</style>
<g>
	<path class="st0" d="M355.9,123.7c-22.9,0-43.8,8.6-59.7,22.7c-18.6,16.5-30.3,40.5-30.3,67.3c0,49.7,40.3,90,90,90
		c18.5,0,35.7-5.6,50-15.2v14.8h40v-89.7h0c0-10.7-1.9-21-5.3-30.6C428,148.4,394.9,123.7,355.9,123.7L355.9,123.7z M305.9,213.7
		c0-27.6,22.4-50,50-50s50,22.4,50,50s-22.4,50-50,50S305.9,241.2,305.9,213.7z"/>
	<path class="st1" d="M866.7,212.4c0,31.2-4.5,61.6-13.5,90.9h41.6c7.8-29,11.9-59.5,11.9-90.9c0-29.9-3.7-58.9-10.8-86.5l-38.7,9.9
		C863.5,160.6,866.7,186.3,866.7,212.4z"/>
	<g>
		<path class="st2" d="M79.9,91.3c-10,39.3-15.1,79.8-15.1,121.1c0,17.1,0.9,34.2,2.6,51c1.4,13.4,3.3,26.8,5.8,40H114h30.7h41.1h31
			h41.6c-4-13.1-7.1-26.5-9.4-40c-2.8-16.7-4.2-33.8-4.2-51c0-26.2,3.2-51.8,9.5-76.7l-38.7-9.9c-7,27.7-10.8,56.7-10.8,86.5
			c0,17.3,1.3,34.4,3.7,51h-30.3c-2.2-16.8-3.4-33.8-3.4-51c0-32,3.9-63.4,11.7-93.9l-38.8-9.9c-8.6,33.7-12.9,68.4-12.9,103.8
			c0,17.2,1,34.2,3.1,51h-30.2c-1.9-16.8-2.8-33.9-2.8-51c0-37.9,4.6-75.1,13.8-111.2L79.9,91.3L79.9,91.3z"/>
	</g>
	<path class="st1" d="M645.9,213.7c0-8.1-1.1-15.9-3.1-23.4c-8.9-33.2-36.3-58.8-70.5-65.1c-5.3-1-10.8-1.5-16.4-1.5
		c-5.7,0-11.3,0.5-16.7,1.5c-34.1,6.4-61.4,32-70.3,65.1c-2,7.4-3.1,15.3-3.1,23.3c0,49.7,40.3,90,90,90c18.5,0,35.7-5.6,50-15.2
		v14.8h40L645.9,213.7L645.9,213.7z M555.9,263.7c-27.6,0-50-22.4-50-50c0-4.7,0.7-9.2,1.9-13.5c5.1-18.2,20.2-32.2,38.9-35.7
		c3-0.6,6.1-0.9,9.2-0.9c3.1,0,6,0.3,9,0.8c18.8,3.4,34,17.4,39.2,35.6c1.2,4.3,1.9,8.8,1.9,13.5
		C605.9,241.2,583.5,263.7,555.9,263.7z"/>
	<g>
		<path class="st0" d="M815.6,146.3c-15.9-14.1-36.8-22.6-59.7-22.6c-18.5,0-35.7,5.6-50,15.2V63.7h-40v120.7v29.3h0
			c0,49.7,40.3,90,90,90s90-40.3,90-90C845.9,186.9,834.2,162.8,815.6,146.3z M755.9,263.7c-27.6,0-50-22.4-50-50s22.4-50,50-50
			s50,22.4,50,50S783.5,263.7,755.9,263.7z"/>
	</g>
</g>
<circle class="st1" cx="863.2" cy="90.9" r="22.5"/>
</svg>
